# xmcd CD database file
#
# Track frame offsets:
#	150
#	44946
#	71663
#	118327
#	184403
#	239483
#	280778
#
# Disc length: 4232 seconds
#
# Revision: 0
# Processed by: cddbd v1.5.2PL0 Copyright (c) Steve Scherf et al.
# Submitted via: CDex 1.51
#
DISCID=74108607
DTITLE=Pirchner/peppl - live at miles smiles
DYEAR=1985
DGENRE=Jazz
TTITLE0=Wirf an
TTITLE1=African Godchild
TTITLE2=Camomile Tea
TTITLE3=Homesick
TTITLE4=Das Auge des Maulwurfs
TTITLE5=The Carter
TTITLE6=Air Love and Vitamines
EXTD=YEAR: 1985
EXTT0=
EXTT1=
EXTT2=
EXTT3=
EXTT4=
EXTT5=
EXTT6=
PLAYORDER=
